<?xml version="1.0" encoding="utf-8"?>
<!-- Generator: Adobe Illustrator 22.0.0, SVG Export Plug-In . SVG Version: 6.00 Build 0)  -->
<svg version="1.1" id="Layer_1" xmlns="http://www.w3.org/2000/svg" xmlns:xlink="http://www.w3.org/1999/xlink" x="0px" y="0px"
	 viewBox="0 0 394.9 70.1" style="enable-background:new 0 0 394.9 70.1;" xml:space="preserve">
<style type="text/css">
	.st0{fill:none;stroke:#000000;stroke-width:1.4173;stroke-miterlimit:10;}
	.st1{font-family:'Lato';font-weight: bold;}
	.st2{font-size:54.0306px;}
	.st3{fill:none;stroke:#000000;stroke-width:5.6693;stroke-miterlimit:10;}
</style>
<title>money-1</title>
<path d="M10.6,56.9c-0.2-0.2-0.6-0.4-0.9-0.4s-0.7,0.1-0.9,0.4c-0.2,0.2-0.4,0.6-0.4,0.9s0.1,0.7,0.4,0.9C9.1,58.9,9.4,59,9.7,59
	s0.7-0.1,0.9-0.4c0.2-0.2,0.4-0.6,0.4-0.9S10.9,57.1,10.6,56.9z"/>
<path d="M58.7,22.9c-0.2-0.2-0.6-0.4-0.9-0.4c-0.3,0-0.7,0.1-0.9,0.4s-0.4,0.6-0.4,0.9s0.1,0.7,0.4,0.9c0.2,0.2,0.6,0.4,0.9,0.4
	c0.3,0,0.7-0.1,0.9-0.4c0.2-0.2,0.4-0.6,0.4-0.9S58.9,23.1,58.7,22.9z"/>
<path d="M63.6,0.4L63.6,0.4C63.4,0.1,63.1,0,62.7,0L32,0c-0.7,0-1.3,0.6-1.3,1.3v3.6L18.9,8c-0.7,0.2-1.1,0.9-0.9,1.5l6.1,22.9
	l-5.3,5.3c-0.7-1-1.8-1.6-3.1-1.6h-12c-2.1,0-3.8,1.7-3.8,3.8v20.4C0,62.3,1.7,64,3.8,64h12c1.8,0,3.2-1.2,3.6-2.8l1.5,1.3
	c1.1,1,2.6,1.6,4.1,1.6h37.7c0.7,0,1.3-0.6,1.3-1.3V1.3C64,0.9,63.9,0.6,63.6,0.4z M17,60.3c0,0.7-0.6,1.3-1.3,1.3h-12
	c-0.7,0-1.3-0.6-1.3-1.3V39.9c0-0.7,0.6-1.3,1.3-1.3h4.8V53c0,0.7,0.6,1.3,1.3,1.3S11,53.7,11,53V38.6h4.8c0.7,0,1.3,0.6,1.3,1.3
	V60.3z M20.8,10.1L20.8,10.1l10-2.7V12l-0.8,0.2c-0.3,0.1-0.6,0.3-0.8,0.6c-0.2,0.3-0.2,0.6-0.1,0.9c0.5,1.8-0.6,3.6-2.4,4.1
	c-0.3,0.1-0.6,0.3-0.8,0.6c-0.2,0.3-0.2,0.6-0.1,0.9l4.9,18h-2.5l-1.3-5.1c0-0.2-0.1-0.3-0.2-0.4L20.8,10.1z M30.7,17.8v10.5
	l-2.3-8.4C29.4,19.4,30.2,18.7,30.7,17.8z M48.7,61.5H25c-0.9,0-1.8-0.3-2.5-0.9l-3-2.6V40.6l5.5-5.5l1,3.9c0.1,0.6,0.6,0.9,1.2,0.9
	l24.6,0c1,0,1.8,0.8,1.8,1.8c0,1-0.8,1.8-1.8,1.8H39.1c-0.7,0-1.3,0.6-1.3,1.3s0.6,1.3,1.3,1.3h16.5c1,0,1.8,0.8,1.8,1.8
	c0,1-0.8,1.8-1.8,1.8H39.1c-0.7,0-1.3,0.6-1.3,1.3s0.6,1.3,1.3,1.3H53c1,0,1.8,0.8,1.8,1.8c0,1-0.8,1.8-1.8,1.8H39.1
	c-0.7,0-1.3,0.6-1.3,1.3s0.6,1.3,1.3,1.3h9.6c1,0,1.8,0.8,1.8,1.8C50.5,60.7,49.7,61.5,48.7,61.5z M61.5,61.5L61.5,61.5h-8.9
	c0.2-0.5,0.4-1.1,0.4-1.8s-0.1-1.2-0.4-1.8H53c2.3,0,4.3-1.9,4.3-4.3c0-0.7-0.2-1.3-0.5-1.9c1.8-0.5,3.1-2.1,3.1-4.1
	c0-0.9-0.3-1.8-0.8-2.5V29.4c0-0.7-0.6-1.3-1.3-1.3s-1.3,0.6-1.3,1.3v14.2c-0.3-0.1-0.6-0.1-0.9-0.1h0c0.2-0.5,0.4-1.1,0.4-1.8
	c0-2.3-1.9-4.2-4.2-4.2H40.6v0h-2.4V13.7c2.2-0.5,4-2.2,4.5-4.5h9.4c0.5,2.2,2.2,4,4.5,4.5v3.9c0,0.7,0.6,1.3,1.3,1.3
	s1.3-0.6,1.3-1.3v-5c0-0.7-0.6-1.3-1.3-1.3c-1.9,0-3.4-1.5-3.4-3.4c0-0.7-0.6-1.3-1.3-1.3H41.6c-0.7,0-1.3,0.6-1.3,1.3
	c0,1.9-1.5,3.4-3.4,3.4c-0.7,0-1.3,0.6-1.3,1.3v24.9h-2.4v-35l28.2,0V61.5z"/>
<g sketch:type="MSPage">
	<path sketch:type="MSShapeGroup" class="st0" d="M47.6,29.9l2.9-2.9c0.7-0.7,0.7-1.8,0-2.4c-0.3-0.3-0.8-0.5-1.2-0.5
		c-0.5,0-0.9,0.2-1.2,0.5L47.6,25l-0.5-0.5c-0.3-0.3-0.8-0.5-1.2-0.5c-0.5,0-0.9,0.2-1.2,0.5c-0.7,0.7-0.7,1.8,0,2.4L47.6,29.9
		L47.6,29.9z M47.6,31L44.7,34c-0.7,0.7-0.7,1.8,0,2.4c0.3,0.3,0.8,0.5,1.2,0.5c0.5,0,0.9-0.2,1.2-0.5l0.5-0.5l0.5,0.5
		c0.3,0.3,0.8,0.5,1.2,0.5c0.5,0,0.9-0.2,1.2-0.5c0.7-0.7,0.7-1.8,0-2.4L47.6,31L47.6,31z M53,30.4l0.5-0.5c0.3-0.3,0.5-0.8,0.5-1.2
		c0-0.5-0.2-0.9-0.5-1.2c-0.3-0.3-0.8-0.5-1.2-0.5c-0.5,0-0.9,0.2-1.2,0.5l-2.9,2.9l2.9,2.9c0.3,0.3,0.8,0.5,1.2,0.5
		c0.5,0,0.9-0.2,1.2-0.5c0.3-0.3,0.5-0.8,0.5-1.2c0-0.5-0.2-0.9-0.5-1.2L53,30.4L53,30.4z M44.1,27.5c-0.3-0.3-0.8-0.5-1.2-0.5
		c-0.5,0-0.9,0.2-1.2,0.5c-0.7,0.7-0.7,1.8,0,2.4l0.5,0.5L41.7,31c-0.7,0.7-0.7,1.8,0,2.4c0.3,0.3,0.8,0.5,1.2,0.5
		c0.5,0,0.9-0.2,1.2-0.5l2.9-2.9L44.1,27.5L44.1,27.5z"/>
</g>
<text transform="matrix(1 0 0 1 66.8691 60.3948)" class="st1 st2">BENEFICIUM</text>
<line class="st3" x1="70.8" y1="7.1" x2="391" y2="7.1"/>
</svg>
